# xmcd
#
# Track frame offsets:
# 150
# 13899
# 28367
# 48123
# 63316
# 85345
# 99398
# 112671
# 129553
# 143224
#
# Disc length: 2140 seconds
#
#
# Revision: 0
# Processed by: cddbd v1.5PL3 Copyright (c) Steve Scherf et al.
# Submitted via: FreeRIP 2.53 
#
DISCID=80085a0a
DTITLE=Brooks and Dunn - Waitin' On Sundown
DYEAR=1900
DGENRE=Country
TTITLE0=Little Miss Honky-Tonk
TTITLE1=She's Not The Cheatin' Kind
TTITLE2=Silver and Gold
TTITLE3=I'll Never Forgive My Heart
TTITLE4=You're Gonna Miss Me When I'm Gone
TTITLE5=My Kind Of Crazy
TTITLE6=Whiskey Under The Bridge
TTITLE7=If That's The Way You Want It
TTITLE8=She's The Kind Of Trouble
TTITLE9=A Few Good Rides Away
EXTD=
EXTT0=
EXTT1=
EXTT2=
EXTT3=
EXTT4=
EXTT5=
EXTT6=
EXTT7=
EXTT8=
EXTT9=
PLAYORDER=
